<svg width="152" height="36" viewBox="0 0 152 36" fill="none" xmlns="http://www.w3.org/2000/svg">
<g clip-path="url(#clip0_32_111)">
<path d="M151.274 6.11997C151.246 4.62458 150.659 3.32305 149.569 2.24305C148.675 1.35689 147.613 0.803046 146.412 0.636892C146.244 0.6092 146.104 0.581508 145.965 0.581508C145.965 0.581508 145.937 0.581508 145.909 0.581508C145.825 0.553815 145.741 0.553815 145.629 0.553815L145.434 0.526123H135.962C135.766 1.71689 135.375 2.93535 134.816 4.15382C133.615 6.70151 131.91 8.55689 129.731 9.74766C127.524 10.9107 125.484 11.0769 123.584 10.1907C123.472 10.1354 123.332 10.08 123.221 10.0246V25.8092L128.474 10.7446H132.637L136.828 22.8738C137.191 22.9846 137.526 23.0677 137.862 23.1784V15.0923C137.89 14.7323 138.001 14.4 138.281 14.1507C138.532 13.9015 138.84 13.763 139.203 13.7354C139.231 13.7354 139.259 13.7354 139.259 13.7354H148.06C148.312 13.7077 148.535 13.5692 148.759 13.3477C148.982 13.1261 149.122 12.8769 149.15 12.6V12.0738H145.741V11.5477H151.274V6.11997V6.11997ZM145.881 4.09843C146.328 4.09843 146.691 4.26458 147.026 4.5692C147.334 4.90151 147.502 5.26151 147.502 5.70459C147.502 6.14766 147.334 6.53535 147.026 6.83997C146.691 7.17228 146.328 7.31074 145.881 7.31074C145.434 7.31074 145.043 7.17228 144.735 6.83997C144.4 6.53535 144.26 6.14766 144.26 5.70459C144.26 5.26151 144.4 4.90151 144.735 4.5692C145.043 4.26458 145.434 4.09843 145.881 4.09843Z" fill="#77BF7F" stroke="#0D052C" stroke-width="2" stroke-miterlimit="10"/>
<path d="M134.816 4.15382C135.375 2.93535 135.766 1.71689 135.962 0.526123H134.229C134.09 1.49535 133.782 2.49228 133.307 3.4892C132.357 5.51074 130.988 7.00612 129.228 7.97535C127.468 8.91689 125.847 9.02766 124.31 8.33535C123.919 8.14151 123.556 7.91997 123.221 7.64305V10.0246C123.332 10.08 123.472 10.1354 123.584 10.1907C125.484 11.0769 127.524 10.9107 129.731 9.74766C131.91 8.55689 133.615 6.70151 134.816 4.15382Z" fill="#D6B03B" stroke="#0D052C" stroke-width="2" stroke-miterlimit="10"/>
<path d="M133.307 3.4892C133.782 2.49228 134.09 1.49535 134.229 0.526123H128.613C128.585 0.526123 128.557 0.526123 128.529 0.526123C128.39 0.553815 128.25 0.553815 128.138 0.581508C128.11 0.581508 128.11 0.581508 128.11 0.581508C126.909 0.775354 125.847 1.30151 124.925 2.21535C123.835 3.29535 123.276 4.5692 123.221 6.09228V7.64305C123.556 7.91997 123.919 8.14151 124.31 8.33535C125.847 9.02766 127.468 8.91689 129.228 7.97535C130.988 7.00612 132.357 5.51074 133.307 3.4892Z" fill="#77BF7F" stroke="#0D052C" stroke-width="2" stroke-miterlimit="10"/>
<path d="M123.221 25.8648V26.0586C123.193 26.3632 123.053 26.6124 122.829 26.8617C122.55 27.1109 122.215 27.2494 121.851 27.2494C121.46 27.2494 121.125 27.1109 120.846 26.8617C120.79 26.7786 120.734 26.7232 120.678 26.6401C117.996 28.634 116.04 31.0155 114.782 33.8401C114.531 34.394 114.335 34.9478 114.168 35.5017L117.325 35.474C117.437 35.0863 117.576 34.6986 117.772 34.3109C119.029 31.4309 121.209 29.1324 124.338 27.3601C127.44 25.5601 130.541 24.8678 133.671 25.2001C133.866 25.2278 134.062 25.2555 134.257 25.2832L133.307 22.4309H129.899V22.5971C129.116 22.7355 128.334 22.9294 127.551 23.1509L126.657 25.8648H123.221V25.8648Z" fill="#D6B03B" stroke="#0D052C" stroke-width="2" stroke-miterlimit="10"/>
<path d="M120.231 25.8646H116.207L111.234 19.4123H110.256V25.8646H107.015V29.9077C107.071 31.4308 107.629 32.7046 108.719 33.7846C109.837 34.8923 111.15 35.4461 112.659 35.5015C112.743 35.5015 112.799 35.5015 112.854 35.5015C112.882 35.5015 112.882 35.5015 112.91 35.5015H114.168C114.335 34.9477 114.531 34.3938 114.782 33.84C116.04 31.0154 117.996 28.6338 120.678 26.64C120.538 26.4461 120.454 26.1692 120.454 25.8923V11.0769L114.084 17.9446L120.231 25.8646Z" fill="#77BF7F" stroke="#0D052C" stroke-width="2" stroke-miterlimit="10"/>
<path d="M124.338 27.3601C121.209 29.1324 119.029 31.4309 117.772 34.3109C117.576 34.6986 117.437 35.0863 117.325 35.474H131.994C132.022 35.474 132.022 35.474 132.022 35.474C132.106 35.474 132.162 35.474 132.218 35.474C133.754 35.4463 135.068 34.8647 136.157 33.7847C137.247 32.677 137.834 31.4032 137.862 29.9078V25.8647H134.425L134.257 25.2832C134.062 25.2555 133.866 25.2278 133.671 25.2001C130.541 24.8678 127.44 25.5601 124.338 27.3601Z" fill="#77BF7F" stroke="#0D052C" stroke-width="2" stroke-miterlimit="10"/>
<path d="M137.862 25.8648V23.1786C137.526 23.0679 137.191 22.9848 136.828 22.874L137.862 25.8648Z" fill="#D6B03B" stroke="#0D052C" stroke-width="2" stroke-miterlimit="10"/>
<path d="M129.899 22.5971V22.4309H127.803L127.551 23.1509C128.334 22.9294 129.116 22.7355 129.899 22.5971Z" fill="#77BF7F" stroke="#0D052C" stroke-width="2" stroke-miterlimit="10"/>
<path d="M39.5088 0.526123H36.3235C35.8485 2.38151 34.6471 3.98766 32.7471 5.37228C31.35 6.39689 29.8133 7.11689 28.1368 7.58766V9.85843C30.6794 9.30459 32.9427 8.30766 34.9544 6.83997C37.4412 5.03997 38.95 2.93535 39.5088 0.526123Z" fill="#D6B03B" stroke="#0D052C" stroke-width="2" stroke-miterlimit="10"/>
<path d="M40.878 10.7446C40.9059 10.3569 41.0177 10.0246 41.2971 9.77535C41.5765 9.49843 41.9118 9.35997 42.275 9.35997C42.6662 9.35997 43.0015 9.49843 43.253 9.77535C43.5044 9.99689 43.6162 10.2738 43.6721 10.5507V10.7446H56.1897V8.22459C55.0721 7.72612 54.0103 7.03382 52.9765 6.17535C50.9927 4.54151 49.6794 2.65843 49.0088 0.526123H39.5088C38.95 2.93535 37.4412 5.03997 34.9544 6.83997C32.9427 8.30766 30.6794 9.30458 28.1368 9.85843V10.7446H31.35V20.243H31.4897L38.0838 10.7446H40.878Z" fill="#77BF7F" stroke="#0D052C" stroke-width="2" stroke-miterlimit="10"/>
<path d="M54.4853 2.24308C53.5632 1.35693 52.5015 0.803081 51.3 0.636928C51.1603 0.609235 51.0206 0.581543 50.9088 0.581543C51.4397 2.1877 52.4735 3.65539 53.9823 4.90154C54.7088 5.51077 55.4353 5.98154 56.1897 6.36923V6.12C56.1338 4.62462 55.575 3.32308 54.4853 2.24308Z" fill="#77BF7F" stroke="#0D052C" stroke-width="2" stroke-miterlimit="10"/>
<path d="M50.35 0.526123H49.0088C49.6794 2.65843 50.9926 4.54151 52.9765 6.17535C54.0103 7.03381 55.0721 7.72612 56.1897 8.22458V6.3692C55.4353 5.98151 54.7088 5.51074 53.9823 4.90151C52.4735 3.65535 51.4397 2.18766 50.9088 0.581508C50.8809 0.581508 50.8809 0.581508 50.8809 0.581508C50.8529 0.581508 50.825 0.581508 50.825 0.581508C50.7132 0.553815 50.6294 0.553815 50.5456 0.553815L50.35 0.526123Z" fill="#D6B03B" stroke="#0D052C" stroke-width="2" stroke-miterlimit="10"/>
<path d="M33.0265 0.581508C31.7971 0.775354 30.7353 1.30151 29.8412 2.21535C28.7515 3.29535 28.1647 4.5692 28.1368 6.09228V7.58766C29.8133 7.11689 31.35 6.39689 32.7471 5.37228C34.6471 3.98766 35.8485 2.38151 36.3235 0.526123H33.5015C33.4735 0.526123 33.4456 0.526123 33.4456 0.526123C33.3059 0.553815 33.1662 0.553815 33.0265 0.581508Z" fill="#77BF7F" stroke="#0D052C" stroke-width="2" stroke-miterlimit="10"/>
<path d="M12.825 10.5507V10.7446H25.3427V10.2461C24.7559 10.2738 24.1132 10.3015 23.4985 10.3015C19 10.3015 15.1721 9.16612 12.0147 6.83997C9.52795 5.03997 8.01913 2.93535 7.48825 0.526123H0.419128C2.85001 6.47997 6.48236 9.41535 11.3721 9.35997C11.4 9.35997 11.428 9.35997 11.428 9.35997C11.4838 9.35997 11.5397 9.35997 11.5677 9.38766C11.903 9.41535 12.1824 9.52612 12.4059 9.77535C12.6574 9.99689 12.7691 10.2738 12.825 10.5507Z" fill="#77BF7F" stroke="#0D052C" stroke-width="2" stroke-miterlimit="10"/>
<path d="M19.6985 0.553815L19.503 0.526123H10.7853C11.2603 2.38151 12.4618 3.98766 14.3618 5.37228C16.9044 7.22766 19.95 8.14151 23.5544 8.1692C24.1691 8.1692 24.7559 8.14151 25.3427 8.08612V6.11997C25.3147 4.62458 24.728 3.32305 23.6382 2.24305C22.7441 1.35689 21.6824 0.803046 20.4809 0.636892C20.3133 0.6092 20.1735 0.581508 20.0338 0.581508C20.0338 0.581508 20.0059 0.581508 19.978 0.581508C19.8941 0.553815 19.8103 0.553815 19.6985 0.553815Z" fill="#77BF7F" stroke="#0D052C" stroke-width="2" stroke-miterlimit="10"/>
<path d="M25.3427 10.2461V8.08612C24.7559 8.14151 24.1691 8.1692 23.5544 8.1692C19.95 8.14151 16.9044 7.22766 14.3618 5.37228C12.4618 3.98766 11.2603 2.38151 10.7853 0.526123H7.48825C8.01913 2.93535 9.52796 5.03997 12.0147 6.83997C15.1721 9.16612 19 10.3015 23.4985 10.3015C24.1133 10.3015 24.7559 10.2738 25.3427 10.2461Z" fill="#D6B03B" stroke="#0D052C" stroke-width="2" stroke-miterlimit="10"/>
<path d="M25.3427 25.8923L22.1574 25.8646V13.3477H16.0103V25.8646H12.825V29.9077C12.853 31.4307 13.4397 32.7046 14.5294 33.7846C15.4515 34.6984 16.5132 35.2523 17.7427 35.4461L19.6985 35.5015H29.1147C29.8412 33.6461 31.2382 31.9569 33.25 30.4615C35.4853 28.8553 38.028 27.8307 40.878 27.3323V25.8646H37.6647V16.3661H37.553L30.9309 25.8646H28.1368V26.0584C28.0809 26.363 27.9691 26.6123 27.7177 26.8615C27.4662 27.1107 27.1309 27.2492 26.7397 27.2492C26.3765 27.2492 26.0412 27.1107 25.7618 26.8615C25.4824 26.5846 25.3706 26.2523 25.3427 25.8923Z" fill="#77BF7F" stroke="#0D052C" stroke-width="2" stroke-miterlimit="10"/>
<path d="M29.1147 35.5015L32.7191 35.4738C33.3338 34.3384 34.3118 33.2861 35.625 32.3446C37.1618 31.2092 38.9221 30.4338 40.878 29.9907C40.878 29.963 40.878 29.9354 40.878 29.9077V27.3323C38.028 27.8307 35.4853 28.8554 33.25 30.4615C31.2382 31.9569 29.8412 33.6461 29.1147 35.5015Z" fill="#D6B03B" stroke="#0D052C" stroke-width="2" stroke-miterlimit="10"/>
<path d="M36.0162 35.4461C37.2176 35.2523 38.2794 34.6984 39.1735 33.7846C40.2632 32.7323 40.8221 31.4584 40.8779 29.9907C38.9221 30.4338 37.1618 31.2092 35.625 32.3446C34.3118 33.2861 33.3338 34.3384 32.7191 35.4738H35.5132C35.5412 35.4738 35.5691 35.4738 35.5691 35.4738C35.7088 35.4461 35.8485 35.4461 36.0162 35.4461Z" fill="#77BF7F" stroke="#0D052C" stroke-width="2" stroke-miterlimit="10"/>
<path d="M48.3382 25.8646V13.3754H43.6721V27.0277C44.0074 27.0277 44.3706 27 44.7338 27C46.075 27 47.3603 27.1384 48.5897 27.3323C49.1485 27.4154 49.7073 27.5538 50.2662 27.6923C52.4456 28.2461 54.4294 29.1877 56.2176 30.4615C57.6706 31.5415 58.7882 32.7046 59.5706 33.9507C59.8779 34.4492 60.1294 34.9477 60.3529 35.4738H67.0588C67.0868 35.4738 67.0868 35.4738 67.0868 35.4738C67.1706 35.4738 67.2265 35.4738 67.2824 35.4738C67.3941 35.4461 67.4779 35.4461 67.5618 35.4461C68.9868 35.363 70.1882 34.7815 71.2221 33.7846C72.3118 32.6769 72.8985 31.403 72.9265 29.9077V10.7169C72.9544 10.3569 73.0662 10.0246 73.3456 9.77535C73.625 9.49843 73.9603 9.35997 74.3235 9.35997C74.7147 9.35997 75.05 9.49843 75.3015 9.77535C75.5529 9.99689 75.6647 10.2738 75.7206 10.5507V10.7446H78.9338V16.9754H85.5V14.2061C82.3426 13.5692 80.0515 11.9907 78.6265 9.52612C77.0897 6.86766 76.95 3.87689 78.2632 0.526123H66.7235C66.7515 0.692277 66.8074 0.858431 66.8632 1.05228C67.45 3.43382 67.0588 5.42766 65.7176 7.03381C64.3765 8.61228 62.4485 9.30458 59.9618 9.16612C59.6265 9.13843 59.2912 9.08305 58.9559 9.05535V26.0584C58.9279 26.363 58.7882 26.6123 58.5647 26.8615C58.2853 27.1107 57.95 27.2492 57.5868 27.2492C57.1956 27.2492 56.8603 27.1107 56.5809 26.8615C56.3294 26.5846 56.1897 26.2523 56.1897 25.8923V13.3754H51.5235V25.8646H48.3382ZM62.3926 11.6584C63.4265 11.0769 64.6279 10.7723 65.9412 10.7723C67.2544 10.7723 68.4279 11.0769 69.4897 11.6584C70.5235 12.2677 71.3618 13.1261 71.9765 14.2615C72.4515 15.1477 72.7588 16.2 72.8426 17.3907C72.8706 17.6954 72.8706 18 72.8706 18.3046C72.8706 18.5815 72.8706 18.8307 72.8706 19.0523C72.7868 20.3538 72.4794 21.4615 71.9765 22.4307C71.3618 23.5384 70.5235 24.3969 69.4897 24.9784C68.4279 25.5877 67.2544 25.8923 65.9412 25.8923C64.6279 25.8923 63.4265 25.5877 62.3926 24.9784C61.3309 24.3969 60.5206 23.5384 59.9059 22.4307C59.2912 21.2677 58.9838 19.9107 58.9838 18.3046C58.9838 16.7261 59.2912 15.3692 59.9059 14.2615C60.5206 13.1261 61.3309 12.2677 62.3926 11.6584Z" fill="#77BF7F" stroke="#0D052C" stroke-width="2" stroke-miterlimit="10"/>
<path d="M69.7133 18.3047C69.7133 17.2801 69.5735 16.4216 69.2383 15.7016C68.9309 14.9816 68.4838 14.4555 67.925 14.0678C67.3662 13.7078 66.6956 13.5139 65.9412 13.5139C65.1868 13.5139 64.5162 13.7078 63.9574 14.0678C63.3985 14.4555 62.9515 14.9816 62.6441 15.7016C62.3368 16.4216 62.1691 17.2801 62.1971 18.3047C62.1691 19.357 62.3368 20.2431 62.6441 20.9355C62.9515 21.6555 63.3985 22.2093 63.9574 22.5693C64.5162 22.9293 65.1868 23.1231 65.9412 23.1231C66.6956 23.1231 67.3662 22.9293 67.925 22.5693C68.4838 22.2093 68.9309 21.6555 69.2383 20.9355C69.5735 20.2431 69.7133 19.357 69.7133 18.3047Z" fill="#77BF7F" stroke="#0D052C" stroke-width="2" stroke-miterlimit="10"/>
<path d="M44.7338 27C44.3706 27 44.0074 27.0277 43.6721 27.0277V29.6308C44.0353 29.5754 44.4265 29.5754 44.7897 29.5754C45.5441 29.5754 46.2706 29.6308 46.9691 29.6862C47.4441 29.7692 47.9471 29.8246 48.4221 29.9354C50.4897 30.3508 52.3618 31.1538 53.9824 32.3446C55.2956 33.2862 56.2456 34.3385 56.8882 35.4738H60.3529C60.1294 34.9477 59.8779 34.4492 59.5706 33.9508C58.7882 32.7046 57.6706 31.5415 56.2176 30.4615C54.4294 29.1877 52.4456 28.2462 50.2662 27.6923C49.7073 27.5538 49.1485 27.4154 48.5897 27.3323C47.3603 27.1385 46.075 27 44.7338 27Z" fill="#D6B03B" stroke="#0D052C" stroke-width="2" stroke-miterlimit="10"/>
<path d="M44.7897 29.5754C44.4265 29.5754 44.0353 29.5754 43.6721 29.6308V29.9077C43.7 31.4308 44.2868 32.7047 45.3765 33.7847C46.4662 34.8924 47.7794 35.4462 49.3162 35.5016C49.3721 35.5016 49.4279 35.5016 49.5118 35.5016H49.5397L56.8882 35.4739C56.2456 34.3385 55.2956 33.2862 53.9824 32.3447C52.3618 31.1539 50.4897 30.3508 48.4221 29.9354C47.9471 29.8247 47.4441 29.7693 46.9691 29.6862C46.2706 29.6308 45.5441 29.5754 44.7897 29.5754Z" fill="#77BF7F" stroke="#0D052C" stroke-width="2" stroke-miterlimit="10"/>
<path d="M83.8235 0.581508C83.6838 0.553815 83.5441 0.553815 83.4044 0.526123H81.4485C80.2471 3.35074 80.3029 5.84305 81.5882 8.08612C82.4824 9.6092 83.7677 10.6892 85.5 11.3538V10.7446H88.7132V6.09228C88.6574 4.5692 88.0985 3.29535 87.0088 2.21535C86.0868 1.30151 85.025 0.775354 83.8235 0.581508Z" fill="#77BF7F" stroke="#0D052C" stroke-width="2" stroke-miterlimit="10"/>
<path d="M81.5882 8.08612C80.303 5.84305 80.2471 3.35074 81.4485 0.526123H78.2632C76.95 3.87689 77.0897 6.86766 78.6265 9.52612C80.0515 11.9907 82.3427 13.5692 85.5 14.2061V11.3538C83.7677 10.6892 82.4824 9.6092 81.5882 8.08612Z" fill="#D6B03B" stroke="#0D052C" stroke-width="2" stroke-miterlimit="10"/>
<path d="M66.7235 0.526123H65.1029V0.803046C65.5779 2.71382 65.2706 4.31997 64.2088 5.59382C63.1191 6.83997 61.5823 7.42151 59.5985 7.28305C59.375 7.28305 59.1794 7.25536 58.9559 7.22766V9.05536C59.2912 9.08305 59.6265 9.13843 59.9618 9.16612C62.4485 9.30459 64.3765 8.61228 65.7176 7.03382C67.0588 5.42766 67.45 3.43382 66.8632 1.05228C66.8073 0.858431 66.7515 0.692277 66.7235 0.526123Z" fill="#D6B03B" stroke="#0D052C" stroke-width="2" stroke-miterlimit="10"/>
<path d="M65.1029 0.803046V0.526123H64.6C64.5162 0.553815 64.4323 0.553815 64.3485 0.581508C64.3206 0.581508 64.2926 0.581508 64.2647 0.581508C64.125 0.581508 63.9853 0.6092 63.8456 0.636892C63.4823 0.692277 63.1191 0.775354 62.7838 0.886123C62.0015 1.16305 61.3029 1.63382 60.6603 2.24305C59.5706 3.32305 59.0118 4.62458 58.9559 6.11997V7.22766C59.1794 7.25535 59.375 7.28305 59.5985 7.28305C61.5823 7.42151 63.1191 6.83997 64.2088 5.59382C65.2706 4.31997 65.5779 2.71382 65.1029 0.803046Z" fill="#77BF7F" stroke="#0D052C" stroke-width="2" stroke-miterlimit="10"/>
<path d="M104.947 0.526123C104.807 1.27382 104.528 2.07689 104.193 2.87997C102.907 5.75997 100.728 8.05843 97.6265 9.83074C96.6485 10.3846 95.6706 10.8554 94.7206 11.1877V13.5415C96.0338 13.0707 97.3471 12.4892 98.6603 11.7415C102.544 9.49843 105.254 6.61843 106.847 3.04612C107.21 2.18766 107.518 1.3292 107.713 0.526123C106.791 0.526123 105.869 0.526123 104.947 0.526123Z" fill="#D6B03B" stroke="#0D052C" stroke-width="2" stroke-miterlimit="10"/>
<path d="M104.193 2.88007C104.528 2.077 104.807 1.27392 104.947 0.526227C102.6 0.498535 100.225 0.498535 97.878 0.498535C97.8221 0.498535 97.7662 0.498535 97.7383 0.498535C97.6824 0.498535 97.6544 0.498535 97.6265 0.498535L97.1236 0.526227C97.0397 0.526227 96.9559 0.526227 96.8721 0.526227C96.8441 0.526227 96.8162 0.526227 96.7883 0.526227C96.6485 0.55392 96.5088 0.55392 96.3691 0.581612C95.1677 0.775458 94.1059 1.30161 93.1838 2.21546C92.0941 3.29546 91.5353 4.56931 91.4794 6.09238V10.7447H94.7206V11.1878C95.6706 10.8555 96.6485 10.3847 97.6265 9.83084C100.728 8.05854 102.907 5.76007 104.193 2.88007Z" fill="#77BF7F" stroke="#0D052C" stroke-width="2" stroke-miterlimit="10"/>
<path d="M107.713 0.526123C107.518 1.3292 107.21 2.18766 106.847 3.04612C105.254 6.61843 102.544 9.49843 98.6603 11.7415C97.3471 12.4892 96.0338 13.0707 94.7206 13.5415V20.243H94.8323L101.426 10.7446H104.249V10.7169C104.249 10.3569 104.388 10.0246 104.64 9.77535C104.919 9.49843 105.254 9.35997 105.646 9.35997C106.009 9.35997 106.344 9.49843 106.624 9.77535C106.847 9.99689 106.987 10.2738 107.015 10.5507V10.7446H110.256V16.7815H111.01L116.599 10.7446H120.454V6.11997C120.426 5.23382 120.203 4.43074 119.84 3.71074C119.56 3.18458 119.197 2.68612 118.75 2.24305C117.828 1.35689 116.766 0.803046 115.565 0.636892C115.425 0.6092 115.285 0.581508 115.146 0.581508C115.118 0.581508 115.09 0.581508 115.09 0.581508C114.978 0.553815 114.894 0.553815 114.81 0.553815L114.643 0.526123H114.615C112.296 0.526123 110.004 0.526123 107.713 0.526123Z" fill="#77BF7F" stroke="#0D052C" stroke-width="2" stroke-miterlimit="10"/>
<path d="M102.544 33.7847C103.634 32.7047 104.193 31.4308 104.249 29.9078V25.8647H101.007V16.3662H100.896L94.2735 25.8647H91.4794V26.0585C91.4515 26.3631 91.3118 26.6124 91.0883 26.8616C91.0324 26.8893 91.0044 26.917 90.9485 26.9447C91.7309 27.8585 92.2618 29.0216 92.5691 30.4616C92.8765 32.1231 92.8206 33.7847 92.3735 35.4739H98.8838C100.281 35.3908 101.51 34.8093 102.544 33.7847Z" fill="#77BF7F" stroke="#0D052C" stroke-width="2" stroke-miterlimit="10"/>
<path d="M78.9338 19.634V25.8648H75.7206V29.9079C75.7485 31.2371 76.1956 32.4002 77.0338 33.3971C77.2294 32.7879 77.4809 32.1786 77.7603 31.5694C78.9897 28.994 80.6941 27.1386 82.8735 25.9479C83.7676 25.4771 84.6338 25.1448 85.5 25.034V19.634H78.9338Z" fill="#77BF7F" stroke="#0D052C" stroke-width="2" stroke-miterlimit="10"/>
<path d="M78.2074 34.477C78.375 33.7016 78.6265 32.9539 78.9897 32.1786C79.9677 30.1293 81.3368 28.6616 83.0971 27.6924C84.8294 26.7509 86.478 26.6124 87.9868 27.3324C89.4956 28.0247 90.4456 29.3539 90.8368 31.2924C91.1162 32.677 91.0603 34.0616 90.6412 35.4739H92.3735C92.8206 33.7847 92.8765 32.1232 92.5691 30.4616C92.2618 29.0216 91.7309 27.8586 90.9485 26.9447C90.725 27.1386 90.4177 27.2493 90.1103 27.2493C89.7191 27.2493 89.3838 27.1109 89.1044 26.8616C88.853 26.5847 88.7133 26.2524 88.7133 25.8924V25.8647H85.5V25.0339C84.6338 25.1447 83.7677 25.477 82.8735 25.9478C80.6941 27.1386 78.9897 28.9939 77.7603 31.5693C77.4809 32.1786 77.2294 32.7878 77.0338 33.397C77.1735 33.5355 77.2853 33.6739 77.425 33.7847C77.6765 34.0616 77.928 34.2555 78.2074 34.477Z" fill="#D6B03B" stroke="#0D052C" stroke-width="2" stroke-miterlimit="10"/>
<path d="M78.9897 32.1785C78.6265 32.9539 78.375 33.7015 78.2074 34.4769C79.0456 35.0585 80.0235 35.3908 81.0853 35.4739H90.6412C91.0603 34.0615 91.1162 32.6769 90.8368 31.2923C90.4456 29.3539 89.4956 28.0246 87.9868 27.3323C86.478 26.6123 84.8294 26.7508 83.0971 27.6923C81.3368 28.6615 79.9677 30.1292 78.9897 32.1785Z" fill="#77BF7F" stroke="#0D052C" stroke-width="2" stroke-miterlimit="10"/>
<path d="M130.513 14.1509L128.613 19.9109H132.497L130.513 14.1509Z" fill="#77BF7F" stroke="#0D052C" stroke-width="2" stroke-miterlimit="10"/>
</g>
<defs>
<clipPath id="clip0_32_111">
<rect width="152" height="36" fill="white"/>
</clipPath>
</defs>
</svg>
