<svg width="36" height="36" viewBox="0 0 36 36" fill="none" xmlns="http://www.w3.org/2000/svg">
<g clip-path="url(#clip0_32_151)">
<path opacity="0.971" fill-rule="evenodd" clip-rule="evenodd" d="M22.3945 0.738266C24.3962 0.688991 25.9665 1.47415 27.1055 3.09373C24.2122 4.83368 21.2825 6.52118 18.3164 8.15623C14.8008 8.20313 11.2852 8.20313 7.76953 8.15623C12.1333 5.71647 16.5395 3.34928 20.9883 1.05467C21.4594 0.916136 21.9282 0.810667 22.3945 0.738266Z" fill="#1D1E5F"/>
<path opacity="0.943" fill-rule="evenodd" clip-rule="evenodd" d="M27.7383 4.39452C27.7999 4.38532 27.8468 4.40876 27.8789 4.46484C28.4883 5.68358 29.0976 6.90234 29.707 8.12109C26.8948 8.20314 24.0823 8.21481 21.2695 8.15624C23.4194 6.88387 25.5757 5.62996 27.7383 4.39452Z" fill="#1D1E5F"/>
<path opacity="0.929" fill-rule="evenodd" clip-rule="evenodd" d="M7.48828 5.09765C8.40263 5.08594 9.31669 5.09766 10.2305 5.13281C8.35545 6.16406 6.48047 7.19529 4.60547 8.22656C3.18253 8.36416 1.94034 8.90325 0.878906 9.84375C0.820427 9.89212 0.77355 9.88038 0.738281 9.80859C2.17777 7.08047 4.42778 5.51016 7.48828 5.09765Z" fill="#1D1E5F"/>
<path opacity="0.908" fill-rule="evenodd" clip-rule="evenodd" d="M29.9883 5.44922C31.7891 5.97322 33.2539 6.98103 34.3828 8.47266C34.7178 8.90895 34.9756 9.37772 35.1562 9.87891C34.0483 8.94438 32.771 8.38188 31.3242 8.19141C30.859 7.28445 30.4137 6.37035 29.9883 5.44922Z" fill="#1D1E5F"/>
<path opacity="0.994" fill-rule="evenodd" clip-rule="evenodd" d="M35.9648 14.0274C35.9648 15.082 35.9648 16.1367 35.9648 17.1914C33.4569 17.1797 30.9491 17.1914 28.4414 17.2266C25.7049 17.8535 24.2284 19.5644 24.0117 22.3594C24.2115 25.2547 25.735 26.989 28.582 27.5625C31.0428 27.5977 33.5038 27.6094 35.9648 27.5977C35.9648 28.6524 35.9648 29.707 35.9648 30.7617C35.3665 33.3401 33.7493 34.805 31.1133 35.1563C22.3476 35.2032 13.5821 35.2032 4.81641 35.1563C2.18036 34.805 0.563178 33.3401 -0.0351562 30.7617C-0.0351562 25.1836 -0.0351562 19.6055 -0.0351562 14.0274C0.537325 11.545 2.0842 10.0802 4.60547 9.63283C13.5117 9.58593 22.4179 9.58593 31.3242 9.63283C33.8455 10.0802 35.3924 11.545 35.9648 14.0274Z" fill="#1D1E5F"/>
<path opacity="0.97" fill-rule="evenodd" clip-rule="evenodd" d="M35.9648 18.5977C35.9648 21.1289 35.9648 23.6602 35.9648 26.1914C33.621 26.2032 31.2773 26.1914 28.9336 26.1563C26.7644 25.8389 25.5925 24.585 25.418 22.3945C25.5604 20.2952 26.662 19.0413 28.7227 18.6328C31.1366 18.5977 33.5507 18.5859 35.9648 18.5977ZM29.0039 20.1445C30.7129 20.2712 31.4981 21.1852 31.3594 22.8867C31.1367 23.7656 30.5859 24.3164 29.707 24.5391C27.8086 24.6328 26.9297 23.7305 27.0703 21.832C27.3806 20.8766 28.0252 20.3141 29.0039 20.1445Z" fill="#1D1E5F"/>
<path opacity="0.902" fill-rule="evenodd" clip-rule="evenodd" d="M28.9336 21.621C29.7415 21.5265 30.0813 21.878 29.9531 22.6757C29.6829 23.1408 29.2962 23.2697 28.7929 23.0624C28.3981 22.7048 28.3395 22.2946 28.6172 21.8319C28.7333 21.7687 28.8388 21.6984 28.9336 21.621Z" fill="#1D1E5F"/>
</g>
<defs>
<clipPath id="clip0_32_151">
<rect width="36" height="36" fill="white"/>
</clipPath>
</defs>
</svg>
